<?xml version="1.0" standalone="no"?>
<!DOCTYPE svg PUBLIC "-//W3C//DTD SVG 20010904//EN"
 "http://www.w3.org/TR/2001/REC-SVG-20010904/DTD/svg10.dtd">
<svg version="1.0" xmlns="http://www.w3.org/2000/svg"
 width="225.000000pt" height="225.000000pt" viewBox="0 0 225.000000 225.000000"
 preserveAspectRatio="xMidYMid meet">

<g transform="translate(0.000000,225.000000) scale(0.100000,-0.100000)"
fill="#000000" stroke="none">
<path d="M0 1125 l0 -1125 1125 0 1125 0 0 1125 0 1125 -1125 0 -1125 0 0
-1125z m2156 594 c26 -7 41 -15 34 -19 -8 -5 -7 -11 4 -23 25 -24 39 -298 31
-592 -3 -137 -6 -263 -6 -280 l0 -30 -15 28 c-13 24 -14 36 -3 76 14 55 7 102
-21 149 l-20 32 -272 0 -271 0 24 26 c24 25 24 28 27 250 4 281 -5 309 -102
306 -52 -1 -70 -32 -74 -122 -2 -44 -7 -80 -11 -80 -3 1 -28 35 -55 76 -72
109 -88 124 -134 124 -40 0 -63 -13 -79 -43 -8 -16 -10 -15 -23 8 -18 33 -65
46 -107 29 -24 -9 -41 -10 -63 -3 -16 6 -84 9 -154 7 -116 -3 -126 -5 -150
-27 l-26 -25 -28 26 c-51 47 -115 44 -158 -9 -12 -14 -46 -99 -75 -189 l-54
-164 -42 0 -43 0 0 159 c0 88 -4 171 -10 185 -5 15 -25 34 -44 43 -29 14 -39
14 -66 3 -55 -23 -60 -45 -60 -289 0 -218 0 -220 24 -248 24 -27 27 -28 153
-34 127 -6 127 -6 -40 -5 -155 1 -190 -3 -152 -18 21 -8 19 -18 -30 -141 l-43
-110 0 430 c0 237 3 422 6 413 6 -14 12 -8 28 27 23 49 21 54 -10 28 l-21 -18
19 23 c11 12 26 20 35 17 9 -2 23 0 31 5 23 15 1988 13 2046 -1z m-1926 -129
c19 -19 20 -33 20 -200 l0 -180 59 0 c33 0 66 -3 74 -6 11 -4 29 37 78 182 51
148 69 192 90 206 31 23 73 16 94 -16 25 -37 136 -399 133 -431 -2 -22 -10
-32 -30 -39 -35 -12 -65 12 -74 60 l-6 34 -83 0 -82 0 -11 -39 c-16 -50 -34
-65 -69 -56 -16 4 -76 7 -134 6 -87 -2 -109 1 -123 14 -14 14 -16 45 -16 231
0 201 1 215 20 234 11 11 25 20 30 20 6 0 19 -9 30 -20z m931 -18 c6 -15 9
-115 7 -234 -3 -177 -5 -210 -20 -224 -24 -24 -66 -11 -75 24 -5 15 -8 119 -8
230 0 199 1 204 22 222 29 23 62 15 74 -18z m256 -113 c53 -77 100 -139 103
-139 4 0 8 57 9 128 1 115 3 129 22 145 26 21 30 21 55 3 18 -13 19 -30 22
-235 3 -237 -1 -261 -43 -261 -33 0 -45 13 -150 169 l-90 133 -5 -142 c-4
-110 -8 -143 -20 -150 -25 -16 -48 -11 -64 12 -13 19 -16 59 -16 235 0 197 1
214 19 232 34 34 57 16 158 -130z m-387 121 c38 -38 16 -78 -48 -87 l-42 -6 0
-163 c0 -171 -7 -208 -38 -218 -58 -19 -72 25 -72 224 l0 157 -41 6 c-50 7
-61 17 -61 53 0 46 23 54 159 54 110 0 125 -2 143 -20z m-252 -129 c9 -5 12
-30 10 -87 l-3 -79 -26 88 c-23 76 -24 87 -10 87 9 0 22 -4 29 -9z m252 -162
l0 -171 29 -29 29 -29 -91 1 c-69 0 -87 3 -72 10 44 21 50 46 53 214 4 158 7
174 40 175 9 0 12 -41 12 -171z m420 -112 c29 -43 64 -87 78 -98 l25 -19 -116
0 -115 0 29 29 c27 28 29 35 29 107 0 43 4 74 8 69 5 -6 33 -45 62 -88z m-805
-47 c4 -16 18 -39 32 -50 l26 -20 -118 0 -118 0 26 24 c14 13 29 36 33 50 6
24 10 26 59 26 51 0 54 -1 60 -30z m607 -63 c7 -3 -16 -6 -52 -6 -62 0 -64 0
-38 14 15 8 30 24 33 36 7 20 8 19 25 -9 10 -16 24 -32 32 -35z m-415 13 l26
-20 -53 0 -52 0 23 20 c30 24 26 24 56 0z m6 -82 c50 -26 72 -120 42 -178 -32
-61 -121 -79 -174 -35 -115 98 -1 281 132 213z m375 -23 c12 -14 22 -30 22
-36 0 -14 -44 -11 -66 6 -50 38 -122 -7 -110 -69 12 -60 61 -83 109 -52 19 13
65 17 60 5 -1 -2 -5 -12 -9 -22 -9 -24 -56 -47 -98 -47 -66 0 -126 81 -111
150 21 98 141 136 203 65z m-919 -81 c22 -64 41 -120 41 -125 0 -20 -41 -8
-52 16 -9 21 -18 25 -53 25 -35 0 -44 -4 -53 -25 -10 -23 -52 -37 -52 -17 0 8
78 221 86 233 3 5 13 9 23 9 14 0 28 -26 60 -116z m101 29 c0 -94 8 -120 34
-110 13 5 16 23 18 84 0 43 1 85 2 93 1 8 11 16 24 18 22 3 22 2 22 -102 0
-93 -3 -109 -20 -126 -30 -30 -83 -27 -109 6 -18 23 -21 41 -21 125 0 99 0 99
25 99 25 0 25 -1 25 -87z m258 65 c-2 -15 -11 -24 -25 -26 -22 -3 -23 -7 -23
-103 0 -98 0 -100 -22 -97 -22 3 -23 8 -26 99 -2 87 -5 97 -22 102 -12 3 -20
14 -20 26 0 19 6 21 71 21 67 0 70 -1 67 -22z m730 0 c-2 -19 -10 -24 -40 -26
-33 -3 -38 -7 -38 -28 0 -21 4 -24 40 -24 33 0 40 -3 40 -20 0 -17 -7 -20 -40
-20 -38 0 -40 -2 -40 -30 0 -28 2 -30 40 -30 36 0 40 -2 40 -25 0 -25 -1 -26
-62 -23 l-63 3 -2 110 c-1 61 0 116 2 123 3 8 26 12 65 12 58 0 61 -1 58 -22z
m129 -51 c34 -57 43 -67 44 -47 4 119 3 115 27 118 22 3 22 2 22 -123 0 -124
0 -126 -21 -123 -15 2 -35 25 -61 68 -54 90 -57 91 -56 24 0 -92 0 -94 -22
-94 -19 0 -20 7 -20 125 0 123 0 125 23 125 17 0 32 -17 64 -73z m243 48 c0
-18 -5 -25 -20 -25 -19 0 -20 -7 -20 -101 0 -98 0 -100 -22 -97 -22 3 -23 8
-26 99 -2 87 -5 97 -22 102 -12 3 -20 14 -20 26 0 19 6 21 65 21 63 0 65 -1
65 -25z m150 -1 c0 -24 -3 -26 -40 -22 -38 3 -40 2 -40 -24 0 -26 3 -28 40
-28 33 0 40 -3 40 -20 0 -17 -7 -20 -40 -20 -38 0 -40 -2 -40 -30 0 -28 2 -30
40 -30 36 0 40 -2 40 -25 0 -25 -1 -26 -62 -23 l-63 3 -3 123 -3 122 66 0 c63
0 65 -1 65 -26z m165 1 c33 -32 33 -78 1 -109 l-25 -22 24 -40 c31 -49 31 -54
0 -54 -20 0 -30 11 -52 53 l-28 52 -3 -53 c-3 -48 -5 -53 -25 -50 -21 3 -22 8
-25 126 l-3 122 56 0 c46 0 60 -4 80 -25z m141 -277 c4 -7 3 -8 -4 -4 -7 4
-12 1 -12 -7 0 -8 -7 -20 -15 -27 -10 -9 -15 -9 -15 -1 0 6 4 11 9 11 5 0 11
9 14 20 6 23 13 25 23 8z m-2141 -46 c-3 -3 -11 0 -18 7 -9 10 -8 11 6 5 10
-3 15 -9 12 -12z m1975 -1 c-63 -4 -509 -7 -990 -7 -481 0 -774 3 -650 6 323
7 1777 8 1640 1z"/>
<path d="M150 1691 c0 -6 -7 -7 -17 -4 -12 5 -14 3 -8 -7 6 -9 4 -11 -4 -6 -8
5 -24 -4 -42 -25 l-29 -33 2 -165 c1 -91 4 -129 5 -83 2 45 8 82 13 82 6 0 10
21 10 46 0 25 4 43 8 40 5 -3 8 15 7 40 -1 24 0 42 2 40 7 -7 43 27 43 41 0 6
7 16 16 21 11 6 13 11 5 16 -6 4 -11 3 -11 -3z"/>
<path d="M1826 1585 c-142 -50 -192 -261 -94 -396 33 -45 95 -78 147 -79 106
0 201 113 201 241 0 108 -70 214 -157 238 -47 13 -49 13 -97 -4z m108 -65 c59
-29 89 -79 94 -154 11 -189 -186 -268 -275 -111 -44 77 -21 207 43 252 55 39
81 41 138 13z"/>
<path d="M1808 1487 c-38 -32 -58 -79 -58 -137 0 -84 47 -148 117 -157 107
-14 181 134 123 247 -35 69 -127 93 -182 47z m62 -26 c0 -43 -23 -57 -49 -30
-23 24 -20 36 13 49 33 14 36 12 36 -19z m60 14 c35 -18 36 -22 13 -47 -30
-33 -53 -17 -53 38 0 28 2 29 40 9z m-116 -116 c-9 -11 -25 -19 -36 -19 -15 0
-17 5 -12 28 15 70 14 69 41 38 23 -27 23 -29 7 -47z m170 45 c3 -9 6 -28 6
-44 0 -23 -4 -27 -20 -23 -35 9 -44 30 -26 58 19 29 31 32 40 9z m-84 -48 c0
-32 -20 -44 -36 -22 -16 23 -7 46 17 46 13 0 19 -7 19 -24z m-67 -75 c-1 -41
-8 -48 -29 -30 -26 22 -34 53 -15 61 32 14 46 4 44 -31z m147 22 c7 -6 -23
-56 -37 -60 -14 -5 -28 40 -19 63 4 11 13 13 28 8 13 -3 25 -8 28 -11z m-76
-52 c14 -27 14 -29 -4 -34 -19 -5 -60 1 -60 9 0 2 5 15 12 29 15 33 34 32 52
-4z"/>
<path d="M562 1396 c-12 -41 -22 -79 -22 -85 0 -6 19 -11 45 -11 29 0 45 4 45
13 0 14 -37 148 -43 153 -2 3 -14 -29 -25 -70z"/>
<path d="M738 943 c-26 -29 -30 -60 -14 -91 37 -71 126 -47 126 33 0 63 -74
101 -112 58z"/>
<path d="M228 914 c-3 -11 -9 -27 -13 -36 -6 -15 -2 -18 20 -18 23 0 25 3 19
23 -12 42 -21 51 -26 31z"/>
<path d="M1990 930 c0 -32 4 -40 18 -40 38 0 60 61 26 74 -35 13 -44 7 -44
-34z"/>
</g>
</svg>
